<svg id="Robot" viewBox="0 0 24 24" fill="#64748b" xmlns="http://www.w3.org/2000/svg" xmlns:xlink="http://www.w3.org/1999/xlink">
  <polygon points="1.272727 9.890909 2.345455 9.890909 2.345455 17.4 1.272727 17.4 1.272727 16.327273 0.2 16.327273 0.2 10.963636 1.272727 10.963636 1.272727 9.890909" />
  <path d="M19.5091 6.6727l-1.0727 0 0-1.0727h-5.3637l0-3.2182-2.1454 0 0 3.2182H5.5636l0 1.0727-1.0727 0 0 1.0728-1.0727 0 0 10.7272 1.0727 0 0 1.0728 1.0727 0 0 1.0727 12.8728 0 0-1.0727 1.0727 0 0-1.0728 1.0727 0 0-10.7272-1.0727 0zM17.3636 13.1091l-3.2181 0 0-3.2182 3.2181 0zM13.0727 17.4h-2.1454l0-1.0727 2.1454 0zM6.6364 16.3273l3.2181 0 0 1.0727H6.6364zM6.6364 9.8909l3.2181 0 0 3.2182-3.2181 0zM14.1455 17.4l0-1.0727 3.2181 0 0 1.0727z" />
  <polygon points="23.8 10.963636 23.8 16.327273 22.727273 16.327273 22.727273 17.4 21.654545 17.4 21.654545 9.890909 22.727273 9.890909 22.727273 10.963636 23.8 10.963636" />
</svg>