<svg version="1.1" xmlns="http://www.w3.org/2000/svg" width="32" height="32" viewBox="0 0 512 512"  >
<path d="M0 0 C0.66 0 1.32 0 2 0 C2.55945313 1.0209375 3.11890625 2.041875 3.6953125 3.09375 C8.57831737 11.96400529 13.57314901 20.7610056 18.6875 29.5 C19.55834229 30.98850464 19.55834229 30.98850464 20.44677734 32.50708008 C21.65962297 34.57977894 22.87251457 36.65245089 24.08544922 38.72509766 C27.14845686 43.96447339 30.20432289 49.20790328 33.2472229 54.45898438 C34.22967297 56.15246172 35.21575112 57.84383263 36.2019043 59.53515625 C36.80043213 60.56898437 37.39895996 61.6028125 38.015625 62.66796875 C38.80888184 64.03344849 38.80888184 64.03344849 39.61816406 65.42651367 C40.94728571 67.90182662 42.01329313 70.37184168 43 73 C43.66 73 44.32 73 45 73 C45.26393555 72.29399658 45.52787109 71.58799316 45.79980469 70.8605957 C47.07073408 67.83140942 48.56762793 65.07919805 50.203125 62.23046875 C51.16883423 60.5438916 51.16883423 60.5438916 52.15405273 58.82324219 C52.85259338 57.61126562 53.55124512 56.39935307 54.25 55.1875 C54.97033127 53.93273072 55.69046221 52.67784642 56.41040039 51.42285156 C61.61914883 42.35333262 66.88523372 33.31749514 72.16943359 24.29174805 C76.87401724 16.24659519 81.47197518 8.14565312 86 0 C89.92387566 1.30795855 90.2734936 2.7373968 92.265625 6.30859375 C93.21804077 7.99782959 93.21804077 7.99782959 94.18969727 9.72119141 C94.87649669 10.95994328 95.5632634 12.1987133 96.25 13.4375 C96.96632588 14.71331272 97.68370709 15.98853343 98.40209961 17.26318359 C99.88243388 19.8906333 101.35906736 22.52011126 102.83349609 25.15087891 C106.02694477 30.83744145 109.29466833 36.48095753 112.5625 42.125 C113.80224874 44.27073777 115.04183182 46.41657127 116.28125 48.5625 C117.19970703 50.15191406 117.19970703 50.15191406 118.13671875 51.7734375 C120.0203505 55.03524007 121.90122321 58.29861844 123.78125 61.5625 C129.80439739 72.01712951 135.84522445 82.46048442 141.9375 92.875 C147.35921178 102.14499777 152.70204915 111.45831752 158.01922607 120.78845215 C163.22045129 129.9128284 168.48027878 139.00132774 173.78344727 148.06689453 C179.93766742 158.59084625 186.02369996 169.15380137 192.10888672 179.71777344 C195.23680148 185.14659942 198.36858448 190.57319281 201.5 196 C202.75001879 198.16665583 204.00001878 200.3333225 205.25 202.5 C205.86875 203.5725 206.4875 204.645 207.125 205.75 C229 243.66666667 250.875 281.58333333 272.75 319.5 C273.36987793 320.57427246 273.98975586 321.64854492 274.62841797 322.75537109 C275.86766466 324.90376512 277.10628036 327.05252325 278.34423828 329.20166016 C281.27497632 334.28773917 284.21211416 339.36980229 287.17169189 344.43914795 C288.57178169 346.8381957 289.96828095 349.2393241 291.36450195 351.640625 C292.35343237 353.33798226 293.34755838 355.03230902 294.34179688 356.7265625 C294.93798828 357.75265625 295.53417969 358.77875 296.1484375 359.8359375 C296.67614746 360.73876465 297.20385742 361.6415918 297.74755859 362.57177734 C299 365 299 365 300 369 C271.95 369 243.9 369 215 369 C225.49032263 387.79403998 225.49032263 387.79403998 236.28125 406.38671875 C240.55827486 413.61244864 244.72433454 420.9035748 248.91186523 428.18139648 C249.52747314 429.25075439 250.14308105 430.3201123 250.77734375 431.421875 C251.32640381 432.37674805 251.87546387 433.33162109 252.44116211 434.31542969 C253.49816799 436.13576432 254.58618934 437.93837398 255.70141602 439.72363281 C257 442 257 442 257 444 C116.42 444 -24.16 444 -169 444 C-167.54877547 440.37193866 -166.12455815 437.25771216 -164.234375 433.88671875 C-163.40462158 432.40413574 -163.40462158 432.40413574 -162.55810547 430.89160156 C-161.96143066 429.83424805 -161.36475586 428.77689453 -160.75 427.6875 C-160.12883301 426.58245117 -159.50766602 425.47740234 -158.86767578 424.33886719 C-154.09927583 415.88333712 -149.24517773 407.4791961 -144.32324219 399.11206055 C-138.45422807 389.12585509 -132.74911267 379.06094718 -127 369 C-155.05 369 -183.1 369 -212 369 C-210.53195771 364.59587313 -209.32284118 361.52117022 -207.05078125 357.640625 C-206.16132813 356.11115234 -206.16132813 356.11115234 -205.25390625 354.55078125 C-204.61324219 353.46152344 -203.97257813 352.37226563 -203.3125 351.25 C-202.63743361 350.09279028 -201.96296538 348.93523143 -201.2890625 347.77734375 C-199.88984195 345.37429418 -198.48807065 342.9727608 -197.08447266 340.57226562 C-193.86550635 335.06213188 -190.68480155 329.52992383 -187.5 324 C-186.25017876 321.83323021 -185.0001782 319.66656385 -183.75 317.5 C-182.821875 315.89125 -182.821875 315.89125 -181.875 314.25 C-170 293.66666667 -158.125 273.08333333 -146.25 252.5 C-145.63116943 251.42733887 -145.01233887 250.35467773 -144.37475586 249.24951172 C-143.12564482 247.08442929 -141.87645871 244.91939018 -140.62719727 242.75439453 C-137.48797691 237.31384294 -134.35009437 231.87252784 -131.21484375 226.4296875 C-125.19252671 215.97793801 -119.15330663 205.53700452 -113.0625 195.125 C-107.98724877 186.44737759 -102.97741233 177.73394432 -98 169 C-92.4599827 159.27884383 -86.86625191 149.59105342 -81.21655273 139.93310547 C-75.06233258 129.40915375 -68.97630004 118.84619863 -62.89111328 108.28222656 C-59.76319852 102.85340058 -56.63141552 97.42680719 -53.5 92 C-52.24998121 89.83334417 -50.99998122 87.6666775 -49.75 85.5 C-42.25 72.5 -34.75 59.5 -27.25 46.5 C-26.63012207 45.42548584 -26.01024414 44.35097168 -25.37158203 43.24389648 C-24.13318229 41.09745541 -22.89457865 38.95113196 -21.65576172 36.80493164 C-18.70944644 31.69997994 -15.76533542 26.59379033 -12.82830811 21.48348999 C-11.43150193 19.05339448 -10.03354722 16.62396065 -8.63549805 14.19458008 C-7.64194008 12.46695585 -6.65005691 10.7383688 -5.65820312 9.00976562 C-5.06201172 7.97400391 -4.46582031 6.93824219 -3.8515625 5.87109375 C-3.32385254 4.95255615 -2.79614258 4.03401855 -2.25244141 3.08764648 C-1 1 -1 1 0 0 Z M0 62 C-0.37584229 62.65145996 -0.75168457 63.30291992 -1.13891602 63.97412109 C-42.00927734 134.81608073 -82.87963867 205.65804036 -123.75 276.5 C-124.3692334 277.57338623 -124.9884668 278.64677246 -125.62646484 279.75268555 C-126.87141282 281.91049803 -128.1165289 284.06821353 -129.36181641 286.22583008 C-132.56552651 291.77716592 -135.7659363 297.33036541 -138.9609375 302.88671875 C-151.01664158 323.83908179 -151.01664158 323.83908179 -156.56396484 332.90307617 C-158.27552064 335.2860317 -158.27552064 335.2860317 -159 338 C-91.35 338 -23.7 338 46 338 C44.35993796 332.91880711 44.35993796 332.91880711 42.0390625 328.43359375 C41.6748457 327.82840566 41.31062889 327.22321756 40.93537521 326.59969044 C40.07675336 325.18291764 39.20844235 323.77196151 38.32951736 322.3676939 C35.76117915 318.19913056 33.54727051 314.08865642 31.66668701 309.56440735 C27.48036535 299.6248396 27.48036535 299.6248396 19.57307434 292.81673813 C12.51421636 290.97088245 5.3033383 291.44085044 -1.921875 291.73046875 C-4.23638167 291.74722283 -6.55097268 291.75466909 -8.86553955 291.75325012 C-14.92588382 291.77431093 -20.97678886 291.92080114 -27.03442383 292.09448242 C-33.2279485 292.24953419 -39.42206076 292.28459508 -45.6171875 292.33007812 C-57.74831959 292.43667064 -69.87286358 292.67593666 -82 293 C-65.75 264.83333333 -49.5 236.66666667 -33.25 208.5 C-32.63116943 207.42733887 -32.01233887 206.35467773 -31.37475586 205.24951172 C-30.12564482 203.08442929 -28.87645871 200.91939018 -27.62719727 198.75439453 C-24.48797691 193.31384294 -21.35009437 187.87252784 -18.21484375 182.4296875 C-12.19252542 171.97793576 -6.15300393 161.53718291 -0.0625 151.125 C4.86901726 142.68798052 9.76042242 134.22867974 14.61550903 125.74749756 C15.32223619 124.51302365 16.02947939 123.278845 16.73727417 122.04498291 C17.726349 120.32005908 18.71282931 118.59364836 19.69921875 116.8671875 C20.54746216 115.38387939 20.54746216 115.38387939 21.4128418 113.87060547 C21.936604 112.92330566 22.46036621 111.97600586 23 111 C23.91942383 109.50231079 23.91942383 109.50231079 24.85742188 107.97436523 C26.3165192 105.07153191 26.3165192 105.07153191 25.21411133 102.29370117 C24.6755249 101.38595947 24.13693848 100.47821777 23.58203125 99.54296875 C22.99131836 98.52009766 22.40060547 97.49722656 21.79199219 96.44335938 C21.13875977 95.36892578 20.48552734 94.29449219 19.8125 93.1875 C19.16571289 92.08341797 18.51892578 90.97933594 17.85253906 89.84179688 C16.54084077 87.60782087 15.21909853 85.37971084 13.88720703 83.15771484 C12.19475993 80.32587645 10.53889836 77.47765893 8.90234375 74.61328125 C8.01892657 73.07512008 7.13486329 71.53732972 6.25 70 C5.84499268 69.29512451 5.43998535 68.59024902 5.02270508 67.86401367 C3.11056529 64.34158188 3.11056529 64.34158188 0 62 Z M87 62 C81.38445716 70.44974951 76.4362292 79.36665876 71.4375 88.1875 C70.03234523 90.65817597 68.62548727 93.12788106 67.21875 95.59765625 C66.86582382 96.21775574 66.51289764 96.83785522 66.14927673 97.47674561 C62.60215944 103.70638085 59.02320336 109.9175022 55.4375 116.125 C54.82318115 117.18871826 54.2088623 118.25243652 53.57592773 119.34838867 C52.33707777 121.49309587 51.09806459 123.6377088 49.85888672 125.78222656 C46.73675395 131.18670645 43.61858796 136.59347412 40.5 142 C39.25001878 144.1666775 38.00001879 146.33334417 36.75 148.5 C36.13125 149.5725 35.5125 150.645 34.875 151.75 C33 155 31.125 158.25 29.25 161.5 C28.63116943 162.57266113 28.01233887 163.64532227 27.37475586 164.75048828 C26.12564482 166.91557071 24.87645871 169.08060982 23.62719727 171.24560547 C20.48797691 176.68615706 17.35009437 182.12747216 14.21484375 187.5703125 C8.19252587 198.02206345 2.15311329 208.4628815 -3.9375 218.875 C-9.25636948 227.97272379 -14.51817931 237.10204136 -19.75 246.25 C-20.27604324 247.16866852 -20.27604324 247.16866852 -20.81271362 248.105896 C-21.80868839 249.84592164 -22.80281921 251.58700235 -23.796875 253.328125 C-24.36760742 254.3274707 -24.93833984 255.32681641 -25.52636719 256.35644531 C-26.74311455 258.53917236 -27.88243376 260.76486751 -29 263 C-12.17 263 4.66 263 22 263 C24.165625 259.24625 26.33125 255.4925 28.5625 251.625 C55.75 204.5 55.75 204.5 57.62768555 201.24536133 C58.86875254 199.09416776 60.10980093 196.94296345 61.35083008 194.79174805 C64.26498344 189.74037001 67.17931818 184.6890969 70.09432983 179.63821411 C71.12673478 177.84933082 72.15907956 176.06041283 73.19140625 174.27148438 C74.48685948 172.02662364 75.7824257 169.7818281 77.078125 167.53710938 C78.2219008 165.55498363 79.36441823 163.57213093 80.50537109 161.58837891 C81.43293112 159.98204251 82.36695074 158.37939541 83.31103516 156.78271484 C85.33786726 153.60716696 85.33786726 153.60716696 86 150 C88.65565787 152.39969682 90.27998553 154.96444189 92.046875 158.06640625 C92.63670166 159.09588379 93.22652832 160.12536133 93.83422852 161.18603516 C94.46643311 162.30026855 95.0986377 163.41450195 95.75 164.5625 C96.41867512 165.7325532 97.08787351 166.9023075 97.75756836 168.07177734 C99.14953254 170.50354367 100.53923202 172.93658244 101.92724609 175.37060547 C105.1201941 180.96622683 108.34180969 186.54531569 111.5625 192.125 C112.18358643 193.20225342 112.80467285 194.27950684 113.44458008 195.3894043 C117.58471125 202.56552389 121.75427581 209.7239358 125.9375 216.875 C131.35921178 226.14499777 136.70204915 235.45831752 142.01922607 244.78845215 C147.22045129 253.9128284 152.48027878 263.00132774 157.78344727 272.06689453 C164.57506316 283.68081733 171.28451772 295.34194975 178 307 C180.41783662 311.1963131 182.83640662 315.39220284 185.25564575 319.58770752 C186.22606473 321.27098222 187.19592519 322.95457887 188.16577148 324.63818359 C189.05051147 326.17273193 189.05051147 326.17273193 189.953125 327.73828125 C190.72897949 329.08466675 190.72897949 329.08466675 191.52050781 330.45825195 C192.00874023 331.29702881 192.49697266 332.13580566 193 333 C193.32170166 333.92345215 193.64340332 334.8469043 193.97485352 335.79833984 C196.49662114 338.53990711 197.38326932 338.38314664 201.0222168 338.56762695 C203.16471389 338.56683434 205.30731079 338.53852764 207.44921875 338.48828125 C208.5769722 338.48120651 209.70472565 338.47413177 210.86665344 338.46684265 C214.47427259 338.43881852 218.08034871 338.37606108 221.6875 338.3125 C224.13083699 338.28742769 226.57419826 338.26461267 229.01757812 338.24414062 C235.01224663 338.18896549 241.0060131 338.10525816 247 338 C240.92925933 326.47637412 240.92925933 326.47637412 234.4375 315.1875 C230.1717483 308.01185692 225.97925881 300.79606188 221.8125 293.5625 C221.17497803 292.45608154 220.53745605 291.34966309 219.88061523 290.2097168 C218.57206705 287.93826542 217.26371905 285.66669872 215.95556641 283.39501953 C212.80667946 277.9283002 209.65316736 272.46425113 206.5 267 C205.2499765 264.83334689 203.99997653 262.66668021 202.75 260.5 C202.13125 259.4275 201.5125 258.355 200.875 257.25 C165.25 195.5 165.25 195.5 163.37475586 192.24951172 C162.12564482 190.08442929 160.87645871 187.91939018 159.62719727 185.75439453 C156.48797691 180.31384294 153.35009437 174.87252784 150.21484375 169.4296875 C144.19252671 158.97793801 138.15330663 148.53700452 132.0625 138.125 C126.64352182 128.85967611 121.30324113 119.55112712 115.98883057 110.22564697 C109.61055355 99.03614132 103.15022094 87.89558034 96.62841797 76.7890625 C95.43632567 74.74731401 94.25448774 72.69956895 93.07861328 70.6484375 C92.44552246 69.54757813 91.81243164 68.44671875 91.16015625 67.3125 C90.58015869 66.29800781 90.00016113 65.28351563 89.40258789 64.23828125 C88.93973389 63.49964844 88.47687988 62.76101562 88 62 C87.67 62 87.34 62 87 62 Z M87 212 C81.35689958 220.48732769 76.39154895 229.4485211 71.375 238.3125 C67.2614998 245.57903836 63.13225586 252.82782747 58.81640625 259.9765625 C58.1630127 261.06670654 57.50961914 262.15685059 56.83642578 263.2800293 C55.59547838 265.34343541 54.34299597 267.39995973 53.07763672 269.44848633 C52.52479004 270.37169678 51.97194336 271.29490723 51.40234375 272.24609375 C50.91241943 273.04716553 50.42249512 273.8482373 49.91772461 274.67358398 C48.74345262 277.65034318 49.00398415 278.97566037 50 282 C50.96625542 283.95870085 52.01055509 285.87973692 53.10546875 287.76953125 C53.75193359 288.89294922 54.39839844 290.01636719 55.06445312 291.17382812 C55.77198321 292.38680754 56.47966953 293.59969585 57.1875 294.8125 C57.91790314 296.07583359 58.64771307 297.33951031 59.37695312 298.60351562 C61.57498441 302.4079887 63.78607707 306.20475871 66 310 C66.61697754 311.05880371 67.23395508 312.11760742 67.86962891 313.20849609 C70.1388249 317.10063428 72.40978625 320.99172174 74.68579102 324.87988281 C81.31062498 336.20867942 87.80414058 347.61241764 94.29931641 359.01586914 C95.56697523 361.24018636 96.83594289 363.46372864 98.10629272 365.68650818 C98.73121613 366.77996048 99.35613953 367.87341278 100 369 C99.02632162 368.99170386 98.05264324 368.98340773 97.04945946 368.97486019 C73.36385854 368.775114 49.67836678 368.62719282 25.99210167 368.53369045 C14.53756157 368.48727195 3.08357765 368.42398209 -8.37060547 368.32104492 C-18.35347656 368.23137296 -28.33594491 368.17328399 -38.31920755 368.15320355 C-43.60611026 368.14146413 -48.89186075 368.11385564 -54.17839432 368.04842949 C-59.15438524 367.98734546 -64.12874941 367.96849377 -69.10507965 367.98203087 C-70.93128934 367.97955449 -72.7575533 367.96164472 -74.58343887 367.92715073 C-84.06552166 367.37799559 -84.06552166 367.37799559 -92.38298416 370.96774578 C-93.95111041 373.27448389 -95.00782608 375.4021951 -96 378 C-96.58716797 378.98154053 -97.17433594 379.96308105 -97.77929688 380.97436523 C-98.25431641 381.82716064 -98.72933594 382.67995605 -99.21875 383.55859375 C-99.75886719 384.52216797 -100.29898438 385.48574219 -100.85546875 386.47851562 C-101.66951172 387.94321289 -101.66951172 387.94321289 -102.5 389.4375 C-103.59241187 391.39527851 -104.68615269 393.3523161 -105.78125 395.30859375 C-106.30976562 396.25331543 -106.83828125 397.19803711 -107.3828125 398.17138672 C-109.47982009 401.83925053 -111.68381258 405.4367797 -113.91601562 409.02368164 C-115.16029992 410.91657928 -115.16029992 410.91657928 -115 413 C-10.06 413 94.88 413 203 413 C201.76540872 409.9135218 200.68785459 407.26074518 199.109375 404.41796875 C198.73723877 403.74636719 198.36510254 403.07476562 197.98168945 402.3828125 C197.57523193 401.65835938 197.16877441 400.93390625 196.75 400.1875 C196.31453857 399.40761719 195.87907715 398.62773437 195.43041992 397.82421875 C190.62754585 389.26646158 185.66206012 380.80382282 180.703125 372.3359375 C176.96365411 365.94718008 173.25874966 359.53883924 169.5625 353.125 C168.94028564 352.04541016 168.31807129 350.96582031 167.67700195 349.85351562 C166.41488483 347.6631748 165.15292215 345.47274498 163.89111328 343.28222656 C160.76319852 337.85340058 157.63141552 332.42680719 154.5 327 C153.24998121 324.83334417 151.99998122 322.6666775 150.75 320.5 C150.13125 319.4275 149.5125 318.355 148.875 317.25 C128.25 281.5 128.25 281.5 126.37475586 278.24951172 C125.12564482 276.08442929 123.87645871 273.91939018 122.62719727 271.75439453 C119.48797691 266.31384294 116.35009437 260.87252784 113.21484375 255.4296875 C110.11016528 250.04072124 107.00141094 244.6541278 103.88916016 239.26953125 C102.59093467 237.02271868 101.29363627 234.7753938 99.99755859 232.52734375 C98.04454674 229.14061425 96.08504586 225.75766386 94.125 222.375 C93.52357178 221.33069824 92.92214355 220.28639648 92.30249023 219.21044922 C91.47599976 217.78756592 91.47599976 217.78756592 90.6328125 216.3359375 C90.14699707 215.49595215 89.66118164 214.6559668 89.16064453 213.79052734 C88.77763184 213.19965332 88.39461914 212.6087793 88 212 C87.67 212 87.34 212 87 212 Z " fill="#b91c1c" transform="translate(212,34)"/>
</svg>

