<svg viewBox="0 0 240 240" fill="#F9F9F9" width="32" height="32" xmlns="http://www.w3.org/2000/svg" xmlns:xlink="http://www.w3.org/1999/xlink">
    <svg viewBox="0 0 240 240" fill="" width="240" height="240" desc="Created with imagetracer.js version 1.2.6" version="1.1" xmlns="http://www.w3.org/2000/svg" xmlns:xlink="http://www.w3.org/1999/xlink">
        <path   stroke="#F9F9F9" fill="#F9F9F9" d="M66.6718 74.7024l23.4012 0q9.7379 1.9626 14.7201 8.681l4.5292 7.5488 1.5098 6.039 0 46.8024q-1.7362 10.3418-8.6811 15.475l-12.078 6.039-23.4012 0q-9.7379-1.9627-14.7201-8.6811l-4.5293-7.5488-1.5097-6.039 0-46.8024q1.7362-10.3418 8.6811-15.4749zM70.0687 87.5353 65.5395 89.045l-4.5293 4.5293-2.2646 6.7939 0 40.7633 2.2646 6.039q3.0195 3.7744 9.0585 5.2842l17.3622 0 4.5293-1.5098 3.7744-3.7744 2.2646-6.7939 0-40.7633-2.2646-6.039q-3.0195-4.5293-8.3037-6.039z" />
    </svg>
    <g stroke-width="15" stroke="#818289" fill="none">
        <polyline points="39.846442 7.181818 7.664624 7.181818 7.664624 231.818182 39.846442 231.818182" />
        <polyline points="200.482805 7.181818 232.664624 7.181818 232.664624 231.818182 200.482805 231.818182" />
    </g>
    <path transform="translate(119.75 59.625)" d="M38.0315 14.5272c0.9298-0.0186 1.8597-0.0372 2.8177-0.0564 7.0012-0.0224 12.2346 1.1162 18.0632 5.0393 5.3688 5.4907 8.9151 11.7797 9.2066 19.5522-0.2383 6.682-2.5381 12.1044-6.3592 17.5114 0.5481 0.5012 1.0963 1.0023 1.661 1.5187 6.2794 6.2972 7.781 13.1648 7.7834 21.7667-0.1422 6.5208-1.9579 11.9568-5.8377 17.2426-7.7063 7.356-15.0796 9.2163-25.502 9.1239-1.6397-0.0122-3.278-1e-4-4.9177 0.0145-8.7135 0.014-14.9467-1.5522-21.7826-7.1452-1.8212-1.8779-3.2199-3.829-4.5558-6.0745-0.3142-0.5178-0.6284-1.0355-0.9521-1.569-3.4261-6.8642-3.2521-15.9407-1.3614-23.2478 1.9826-5.0255 4.5967-8.5979 8.388-12.3892-0.3113-0.4865-0.6225-0.9729-0.9433-1.4741-3.8735-6.218-5.994-11.6287-5.1312-19.0271 1.9696-8.0352 5.7357-13.5689 12.6472-18.0513 5.4859-2.8709 10.7236-2.7284 16.7759-2.7347zM26.289 30.4696c-2.9293 3.3152-4.3093 5.4513-4.2177 10.0371 0.3556 2.8503 1.3824 4.7932 3.2418 6.9554 4.2147 2.9865 8.2861 3.5136 13.3353 3.4168 0.6162 0.0118 1.2323 0.0235 1.8672 0.0357 4.402-0.0285 7.014-0.8995 10.6139-3.4525 2.2909-2.4114 3.2202-5.1518 3.3694-8.4473-0.4789-4.2424-1.7297-5.8779-4.7456-8.8269-5.4376-3.8383-18.4-4.5058-23.4643 0.2817zM21.2793 69.1972c-2.1798 3.0679-2.2076 5.0508-2.2779 8.8269-0.0284 0.9905-0.0568 1.9811-0.086 3.0016 0.47 4.1914 2.2436 6.4549 5.3537 9.1948 4.2139 2.9941 8.784 2.2105 13.8099 2.2304 0.9754 0.0157 1.9507 0.0314 2.9556 0.0475 1.4102 58e-4 1.4102 58e-4 2.8489 0.0118 1.2917 0.0107 1.2917 0.0107 2.6096 0.0215 3.1275-0.3588 5.1121-1.5134 7.3296-3.7142 2.9929-3.7993 3.5281-5.5579 3.6186-10.4137 0.0284-0.9905 0.0568-1.9811 0.086-3.0016-0.47-4.1914-2.2436-6.4549-5.3537-9.1948-4.2016-2.9853-8.7494-2.2404-13.7624-2.2779-1.4536-0.033-1.4536-0.033-2.9364-0.0667-6.6475-0.0451-9.7454 0.283-14.1955 5.3344z" />
</svg>