<svg viewBox="0 0 240 240" fill="nine" width="32" height="32" xmlns="http://www.w3.org/2000/svg" xmlns:xlink="http://www.w3.org/1999/xlink">
    <svg viewBox="0 0 240 240" fill="#fafafa" width="240" height="240" desc="Created with imagetracer.js version 1.2.6" version="1.1" xmlns="http://www.w3.org/2000/svg" xmlns:xlink="http://www.w3.org/1999/xlink">
        <path opacity="0.956863" stroke="currentColor" fill="#fafafa" d="M66.6718 74.7024l23.4012 0q9.7379 1.9626 14.7201 8.681l4.5292 7.5488 1.5098 6.039 0 46.8024q-1.7362 10.3418-8.6811 15.475l-12.078 6.039-23.4012 0q-9.7379-1.9627-14.7201-8.6811l-4.5293-7.5488-1.5097-6.039 0-46.8024q1.7362-10.3418 8.6811-15.4749zM70.0687 87.5353 65.5395 89.045l-4.5293 4.5293-2.2646 6.7939 0 40.7633 2.2646 6.039q3.0195 3.7744 9.0585 5.2842l17.3622 0 4.5293-1.5098 3.7744-3.7744 2.2646-6.7939 0-40.7633-2.2646-6.039q-3.0195-4.5293-8.3037-6.039z" />
    </svg>
    <g stroke-width="15" stroke="#a3a4a9" fill="none">
        <polyline points="39.846442 7.181818 7.664624 7.181818 7.664624 231.818182 39.846442 231.818182" />
        <polyline points="200.482805 7.181818 232.664624 7.181818 232.664624 231.818182 200.482805 231.818182" />
    </g>
    <path  fill="#fafafa" transform="translate(97.060303 59.709473)" d="M46.6485 14.6298c0.9452-97e-4 1.8903-0.0193 2.8642-0.0293 1.0326-23e-4 2.0652-41e-4 3.0979-51e-4 1.0591-49e-4 2.1182-0.01 3.1773-0.0153 2.2197-91e-4 4.4393-0.0119 6.6591-0.011 2.8428 2e-4 5.685-0.0205 8.5277-0.0466 2.1873-0.0169 4.3745-0.0199 6.5619-0.0191 1.048-18e-4 2.096-85e-4 3.1439-0.0202 1.4662-0.0148 2.9325-85e-4 4.3988-13e-4 0.834-22e-4 1.6678-43e-4 2.527-65e-4 2.6814 0.4647 3.5529 1.2652 5.1892 3.4034 0.825 3.0249 1.0764 4.6018-0.2366 7.4779-1.2779 1.6092-1.2779 1.6092-2.7924 2.3664-1.2607 0.0685-2.5241 0.0891-3.7867 0.086-1.1824-1e-4-1.1824-1e-4-2.3886-2e-4-0.8535-38e-4-1.707-78e-4-2.5864-0.0118-0.8719-11e-4-1.7437-21e-4-2.6421-33e-4-2.7932-42e-4-5.5863-0.0137-8.3796-0.0234-1.8901-37e-4-3.7803-71e-4-5.6705-0.0103-4.6412-84e-4-9.2823-0.021-13.9235-0.037-0.0648 0.458-0.1297 0.9159-0.1965 1.3877-0.2968 2.0933-0.5944 4.1864-0.892 6.2795-0.102 0.7205-0.2041 1.4409-0.3092 2.1831-0.5038 3.5395-1.0204 7.0727-1.6313 10.5957 0.8151-0.1093 1.6301-0.2187 2.4699-0.3313 14.0273-1.8137 26.5781-2.6392 38.564 5.8214 6.0925 5.9572 8.3402 12.0141 8.5143 20.3972 0.0199 9.4411-0.5009 17.2526-7.3459 24.4496-7.2937 6.4374-14.2728 7.4974-23.7636 7.4952-1.6255 34e-4-3.2494 0.0309-4.8747 0.0596-8.5741 0.0709-15.1411-1.564-21.8583-7.1141-3.4444-3.4575-5.5939-7.3355-6.8982-12.0155 0.0554-2.8221 0.5263-4.0364 2.3191-6.2001 1.8925-1.4357 2.8621-1.5181 5.2535-1.4672 3.7715 1.1546 5.5102 3.5556 7.5726 6.8154 1.7773 2.5314 3.2266 4.1462 6.1053 5.2534 3.5394 0.4497 7.0384 0.4225 10.6016 0.3787 0.9527 0.0117 1.9055 0.0234 2.8871 0.0355 6.7357 0.0633 6.7357 0.0633 12.2581-3.4432 3.32-3.7683 3.4976-6.8958 3.4076-11.6902 0.0118-0.6213 0.0234-1.2425 0.0356-1.8827-0.0283-4.4184-0.8986-7.0368-3.4432-10.6593-6.091-4.6854-15.4735-3.4154-22.768-2.8486-5.0961 0.7519-9.4804 2.7553-14.0655 5.0109-2.9912 1.0191-4.7957 0.8357-7.8447 0.1094-1.8458-1.1358-1.8458-1.1358-3.029-3.029-0.2653-5.2354 0.3811-10.1434 1.2453-15.2989 0.1291-0.7882 0.2581-1.5763 0.3912-2.3884 0.2728-1.6551 0.5485-3.3097 0.827-4.9638 0.4238-2.5291 0.833-5.0603 1.2414-7.5919 0.2678-1.6132 0.5365-3.2263 0.8061-4.8393 0.1207-0.7541 0.2415-1.5083 0.366-2.2853 1.1486-6.6898 1.1486-6.6898 3.4528-9.5823 2.6481-1.7654 3.7292-1.7128 6.861-1.7345z" />
</svg>