<svg viewBox="0 0 240 240" fill="#fafafa" width="32" height="32" xmlns="http://www.w3.org/2000/svg" xmlns:xlink="http://www.w3.org/1999/xlink">
    <svg viewBox="0 0 240 240" fill="#000" width="240" height="240" desc="Created with imagetracer.js version 1.2.6" version="1.1" xmlns="http://www.w3.org/2000/svg" xmlns:xlink="http://www.w3.org/1999/xlink">
        <path opacity="0.956863" stroke="currentColor" fill="#fafafa" d="M67.6718 74.7024l23.4012 0q9.7379 1.9626 14.7201 8.681l4.5292 7.5488 1.5098 6.039 0 46.8024q-1.7362 10.3418-8.6811 15.475l-12.078 6.039-23.4012 0q-9.7379-1.9627-14.7201-8.6811l-4.5293-7.5488-1.5097-6.039 0-46.8024q1.7362-10.3418 8.6811-15.4749zM71.0687 87.5353 66.5395 89.045l-4.5293 4.5293-2.2646 6.7939 0 40.7633 2.2646 6.039q3.0195 3.7744 9.0585 5.2842l17.3622 0 4.5293-1.5098 3.7744-3.7744 2.2646-6.7939 0-40.7633-2.2646-6.039q-3.0195-4.5293-8.3037-6.039z" />
    </svg>
    <g stroke-width="15" stroke="#a3a4a9" fill="none">
        <polyline points="39.846442 7.181818 7.664624 7.181818 7.664624 231.818182 39.846442 231.818182" />
        <polyline points="200.482805 7.181818 232.664624 7.181818 232.664624 231.818182 200.482805 231.818182" />
    </g>
    <path transform="translate(147.097656 60.84375)" d="M32.5392 14.1941c3.6114 2.2695 5.0042 5.1123 6.0013 9.2319 0.3077 3.7417 0.2662 7.4743 0.2226 11.2254-43e-4 1.081-76e-4 2.162-98e-4 3.2431-86e-4 2.8266-0.031 5.653-0.0563 8.4795-0.0234 2.8918-0.0337 5.7836-0.0452 8.6754-0.0243 5.6603-0.0631 11.3204-0.1113 16.9804 0.5756-0.0137 1.1511-0.0274 1.744-0.0416 0.754-0.0108 1.5079-0.0215 2.2846-0.0325 0.7478-0.0137 1.4957-0.0275 2.2661-0.0417 2.0591 0.1158 2.0591 0.1158 4.4324 1.3025 1.8897 2.4566 2.1834 4.0803 2.1834 7.1671-0.9225 2.1848-1.6249 3.384-3.634 4.6546-2.0016 0.7872-3.5257 0.8129-5.6691 0.7564-0.6775-0.0136-1.3549-0.0273-2.0529-0.0414-0.513-0.0177-1.0259-0.0353-1.5545-0.0535 0.0398 1.4141 0.0398 1.4141 0.0802 2.8568 0.0214 1.247 0.0421 2.4939 0.0622 3.7408 0.0192 0.6202 0.0382 1.2404 0.0579 1.8794 0.0441 3.6304-0.0779 6.0635-2.4786 8.99-2.8482 1.8989-4.2213 1.926-7.5943 1.5189-2.0558-1.4299-2.0558-1.4299-3.7972-3.7972-0.458-2.6279-0.3594-5.1743-0.2373-7.8317 0.0171-0.7072 0.0343-1.4145 0.0519-2.1432 0.0446-1.7392 0.1069-3.4758 0.1854-5.2138-0.7647 76e-4-0.7647 76e-4-1.5448 0.0153-5.3223 0.0506-10.6445 0.0849-15.9671 0.1099-1.9844 0.0114-3.9688 0.0269-5.9531 0.0467-2.858 0.0278-5.7157 0.0406-8.5737 0.0506-0.8823 0.0118-1.7646 0.0236-2.6736 0.0356-6.0351 13e-4-10.7315-0.34-15.363-4.5773-2.5014-4.0175-2.6761-6.8397-1.7562-11.4391 1.6978-3.9798 4.913-6.9307 7.8643-10.0091 1.9755-2.0656 3.7855-4.2254 5.5682-6.4611 2.9185-3.6286 6.023-7.0267 9.2034-10.4227 2.9767-3.1966 5.7387-6.5279 8.4743-9.9338 2.269-2.7383 4.6619-5.3468 7.0832-7.9503 2.0416-2.196 4.0171-4.4294 5.9488-6.7222 4.1954-4.7483 9.1375-6.7502 15.3578-4.2481zM24.1113 31.0204c-1.2948 1.3247-2.5519 2.6641-3.7972 4.0344-0.5669 0.6205-0.5669 0.6205-1.1453 1.2536-2.345 2.588-4.5926 5.2318-6.7813 7.9546-2.9152 3.6244-6.0151 7.02-9.1933 10.4109-3.0543 3.278-5.8934 6.6739-8.6742 10.1888-1.5456 1.8511-1.5456 1.8511-3.637 3.8921-1.8822 1.5298-1.8822 1.5298-1.7058 3.275 11.7788 0 23.5577 0 35.6935 0 0-13.5331 0-27.0663 0-41.0095-0.2506 0-0.5012 0-0.7594 1e-4z" />
</svg>