<svg viewBox="0 0 240 240" fill="#fafafa" width="32" height="32" xmlns="http://www.w3.org/2000/svg" xmlns:xlink="http://www.w3.org/1999/xlink">
    <svg viewBox="0 0 240 240" fill="#000" width="240" height="240" desc="Created with imagetracer.js version 1.2.6" version="1.1" xmlns="http://www.w3.org/2000/svg" xmlns:xlink="http://www.w3.org/1999/xlink">
        <path opacity="0.956863" stroke="currentColor" fill="#fafafa" d="M64.6718 74.7024l23.4012 0q9.7379 1.9626 14.7201 8.681l4.5292 7.5488 1.5098 6.039 0 46.8024q-1.7362 10.3418-8.6811 15.475l-12.078 6.039-23.4012 0q-9.7379-1.9627-14.7201-8.6811l-4.5293-7.5488-1.5097-6.039 0-46.8024q1.7362-10.3418 8.6811-15.4749zM68.0687 87.5353 63.5395 89.045l-4.5293 4.5293-2.2646 6.7939 0 40.7633 2.2646 6.039q3.0195 3.7744 9.0585 5.2842l17.3622 0 4.5293-1.5098 3.7744-3.7744 2.2646-6.7939 0-40.7633-2.2646-6.039q-3.0195-4.5293-8.3037-6.039z" />
    </svg>
    <g stroke-width="15" stroke="#a3a4a9" fill="none">
        <polyline points="39.846442 7.181818 7.664624 7.181818 7.664624 231.818182 39.846442 231.818182" />
        <polyline points="200.482805 7.181818 232.664624 7.181818 232.664624 231.818182 200.482805 231.818182" />
    </g>
    <path transform="translate(117.835938 59.608887)" d="M37.5521 14.5561c1.6391 0.0122 3.2769 1e-4 4.9161-0.0144 8.7105-0.0141 14.9416 1.5516 21.7753 7.1427 6.9794 7.1962 8.0639 15.3807 8.0205 25.0429 39e-4 1.0905 87e-4 2.181 0.0142 3.2716 78e-4 2.275 45e-4 4.5497-67e-4 6.8248-0.013 2.8906 48e-4 5.7802 0.0316 8.6707 0.0167 2.2495 0.0155 4.4987 92e-4 6.7482-6e-4 1.0644 45e-4 2.129 0.0158 3.1934 0.0778 8.6558-1.3568 16.7809-7.5302 23.2716-7.3109 6.4527-14.3066 7.5153-23.8199 7.5131-1.6293 33e-4-3.2571 0.0308-4.8862 0.0596-8.5945 0.0711-15.1771-1.5677-21.9103-7.1309-3.4526-3.4658-5.6071-7.353-6.9144-12.0441 0.0554-2.8287 0.5275-4.0459 2.3246-6.2147 1.8969-1.4391 2.8689-1.5217 5.2659-1.4707 3.7805 1.1573 5.5233 3.564 7.5905 6.8315 1.7816 2.5374 3.2343 4.156 6.1199 5.2659 3.5477 0.4508 7.055 0.4235 10.6267 0.3796 0.955 0.0117 1.91 0.0235 2.8939 0.0356 6.7517 0.0635 6.7517 0.0635 12.2872-3.4514 3.6614-3.9887 3.4064-7.6875 3.226-12.809-0.0138-0.7397-0.0274-1.4794-0.0415-2.2416-0.0356-1.8154-0.0854-3.6292-0.1483-5.4438-0.7554 0.3679-1.5107 0.7358-2.2891 1.1149-4.5652 1.7024-9.311 1.558-14.1187 1.5425-1.6065-7e-4-3.2101 0.0308-4.8161 0.0645-7.6524 0.0665-14.5195-1.2777-20.8087-5.9479-6.0993-6.3898-9.2727-13.1797-9.2035-22.0125 32e-4-0.6298 65e-4-1.2597 98e-4-1.9086 0.203-7.381 2.5595-13.9999 7.9603-19.1552 7.5572-5.8746 13.9785-7.2119 23.4061-7.1283zM22.8751 32.7381c-2.545 3.2873-2.8155 5.421-2.8939 9.6305-0.0284 0.9902-0.0568 1.9805-0.086 3.0006 0.4698 4.19 2.2428 6.4528 5.3519 9.1917 4.2003 2.9844 8.7464 2.2397 13.7579 2.2772 0.9686 0.022 1.9373 0.044 2.9354 0.0667 6.8643 0.1432 6.8643 0.1432 12.4354-3.3401 3.3293-3.7793 3.9387-5.7798 4.0325-10.8165 0.0283-0.9902 0.0567-1.9804 0.0859-3.0007-0.4566-4.0721-2.2265-6.3034-5.0672-9.1442-7.9658-5.0691-24.0512-5.1729-30.5519 2.1348z" />
</svg>
 
