<svg viewBox="0 0 240 240" fill="#fafafa" width="32" height="32" xmlns="http://www.w3.org/2000/svg" xmlns:xlink="http://www.w3.org/1999/xlink">
    <svg viewBox="0 0 240 240" fill="#000" width="240" height="240" desc="Created with imagetracer.js version 1.2.6" version="1.1" xmlns="http://www.w3.org/2000/svg" xmlns:xlink="http://www.w3.org/1999/xlink">
        <path opacity="0.956863" stroke="#fafafa" fill="#fafafa" d="M72.6718 74.7024l23.4012 0q9.7379 1.9626 14.7201 8.681l4.5292 7.5488 1.5098 6.039 0 46.8024q-1.7362 10.3418-8.6811 15.475l-12.078 6.039-23.4012 0q-9.7379-1.9627-14.7201-8.6811l-4.5293-7.5488-1.5097-6.039 0-46.8024q1.7362-10.3418 8.6811-15.4749zM76.0687 87.5353 71.5395 89.045l-4.5293 4.5293-2.2646 6.7939 0 40.7633 2.2646 6.039q3.0195 3.7744 9.0585 5.2842l17.3622 0 4.5293-1.5098 3.7744-3.7744 2.2646-6.7939 0-40.7633-2.2646-6.039q-3.0195-4.5293-8.3037-6.039z" />
    </svg>
    <path transform="translate(121.902344 59.273438)" d="M46.1877 14.8804c2.5875 0.8963 4.0423 2.766 5.3578 5.0778 0.521 2.3968 0.4786 4.7218 0.4285 7.1665 5e-4 0.7075 11e-4 1.415 17e-4 2.1439-27e-4 2.3285-0.032 4.656-0.0616 6.9843-7e-3 1.6183-0.0124 3.2365-0.0162 4.8548-0.0144 4.2519-0.0514 8.5033-0.0932 12.755-0.0387 4.3415-0.0559 8.683-0.0749 13.0246-0.0404 8.5133-0.1048 17.0261-0.1843 25.5391 0.5977-0.0119 1.1953-0.0238 1.8111-0.036 2.7146-0.0471 5.429-0.0766 8.1439-0.1056 0.9404-0.019 1.8809-0.0379 2.8499-0.0575 0.9074-73e-4 1.8148-0.0146 2.7497-0.0221 0.8341-0.0119 1.6683-0.0237 2.5276-0.0359 2.6134 0.2922 3.9819 0.9525 6.0739 2.5217 1.8874 2.8311 1.9144 4.196 1.5098 7.5488-1.9956 2.601-3.1221 3.6543-6.3809 4.2536-1.0093 0.0223-2.0192 0.024-3.0286 91e-4-0.831 0.01-0.831 0.01-1.6789 0.0201-1.8244 0.0165-3.6474 56e-4-5.4717-72e-4-1.2719 26e-4-2.5438 62e-4-3.8156 0.0109-2.6627 56e-4-5.3249-24e-4-7.9876-0.0201-3.4093-0.0215-6.8175-91e-4-10.2267 0.0135-2.6255 0.0137-5.2506 93e-4-7.8761-5e-4-1.2569-25e-4-2.5137 6e-4-3.7705 93e-4-1.7585 97e-4-3.5151-5e-3-5.2735-0.026-0.5169 77e-4-1.0338 0.0153-1.5665 0.0232-2.8407-0.0627-4.0266-0.4784-6.2813-2.2641-1.5615-2.0218-1.5615-2.0218-1.9862-4.6639 0.4881-3.0372 1.2551-4.29 3.4442-6.4164 7.1653-2.3885 15.0933-0.7549 22.6463-0.7549-0.2491-15.4448-0.4983-30.8896-0.7549-46.8024-2.242 0.7473-4.484 1.4947-6.7939 2.2646-2.4636 0.3851-4.8689 0.3854-7.3601 0.3775-0.9327 0.0321-0.9327 0.0321-1.8842 0.0648-3.302 0.0107-4.6875-0.1296-7.3925-2.1879-1.4802-2.0287-1.4802-2.0287-1.952-4.6708 0.5855-3.2795 1.6929-4.3497 4.2461-6.4165 2.6746-1.3373 6.0019-0.9721 8.9701-1.0129 3.8467-0.1537 6.0859-1.0019 9.147-3.5163 2.0914-2.963 3.0982-5.2791 3.7744-8.8226 0.4336-2.1539 0.7818-3.298 1.9815-5.1898 2.0657-1.2503 3.8489-1.5096 6.2484-1.6337z" />
    <path transform="translate(121.902344 59.273438)" d="M46.1877 14.8804c2.5875 0.8963 4.0423 2.766 5.3578 5.0778 0.521 2.3968 0.4786 4.7218 0.4285 7.1665 5e-4 0.7075 11e-4 1.415 17e-4 2.1439-27e-4 2.3285-0.032 4.656-0.0616 6.9843-7e-3 1.6183-0.0124 3.2365-0.0162 4.8548-0.0144 4.2519-0.0514 8.5033-0.0932 12.755-0.0387 4.3415-0.0559 8.683-0.0749 13.0246-0.0404 8.5133-0.1048 17.0261-0.1843 25.5391 0.5977-0.0119 1.1953-0.0238 1.8111-0.036 2.7146-0.0471 5.429-0.0766 8.1439-0.1056 0.9404-0.019 1.8809-0.0379 2.8499-0.0575 0.9074-73e-4 1.8148-0.0146 2.7497-0.0221 0.8341-0.0119 1.6683-0.0237 2.5276-0.0359 2.6134 0.2922 3.9819 0.9525 6.0739 2.5217 1.8874 2.8311 1.9144 4.196 1.5098 7.5488-1.9956 2.601-3.1221 3.6543-6.3809 4.2536-1.0093 0.0223-2.0192 0.024-3.0286 91e-4-0.831 0.01-0.831 0.01-1.6789 0.0201-1.8244 0.0165-3.6474 56e-4-5.4717-72e-4-1.2719 26e-4-2.5438 62e-4-3.8156 0.0109-2.6627 56e-4-5.3249-24e-4-7.9876-0.0201-3.4093-0.0215-6.8175-91e-4-10.2267 0.0135-2.6255 0.0137-5.2506 93e-4-7.8761-5e-4-1.2569-25e-4-2.5137 6e-4-3.7705 93e-4-1.7585 97e-4-3.5151-5e-3-5.2735-0.026-0.5169 77e-4-1.0338 0.0153-1.5665 0.0232-2.8407-0.0627-4.0266-0.4784-6.2813-2.2641-1.5615-2.0218-1.5615-2.0218-1.9862-4.6639 0.4881-3.0372 1.2551-4.29 3.4442-6.4164 7.1653-2.3885 15.0933-0.7549 22.6463-0.7549-0.2491-15.4448-0.4983-30.8896-0.7549-46.8024-2.242 0.7473-4.484 1.4947-6.7939 2.2646-2.4636 0.3851-4.8689 0.3854-7.3601 0.3775-0.9327 0.0321-0.9327 0.0321-1.8842 0.0648-3.302 0.0107-4.6875-0.1296-7.3925-2.1879-1.4802-2.0287-1.4802-2.0287-1.952-4.6708 0.5855-3.2795 1.6929-4.3497 4.2461-6.4165 2.6746-1.3373 6.0019-0.9721 8.9701-1.0129 3.8467-0.1537 6.0859-1.0019 9.147-3.5163 2.0914-2.963 3.0982-5.2791 3.7744-8.8226 0.4336-2.1539 0.7818-3.298 1.9815-5.1898 2.0657-1.2503 3.8489-1.5096 6.2484-1.6337z" />
    <g stroke-width="15" stroke="#a3a4a9" fill="none">
        <polyline points="39.846442 7.181818 7.664624 7.181818 7.664624 231.818182 39.846442 231.818182" />
        <polyline points="200.482805 7.181818 232.664624 7.181818 232.664624 231.818182 200.482805 231.818182" />
    </g>
</svg>