<svg viewBox="0 0 240 240" fill="#fafafa" width="32" height="32" xmlns="http://www.w3.org/2000/svg" xmlns:xlink="http://www.w3.org/1999/xlink">
    <svg viewBox="0 0 240 240" fill="#000" width="240" height="240" desc="Created with imagetracer.js version 1.2.6" version="1.1" xmlns="http://www.w3.org/2000/svg" xmlns:xlink="http://www.w3.org/1999/xlink">
        <path opacity="0.956863" stroke="currentColor" fill="#fafafa" d="M67.6718 74.7024l23.4012 0q9.7379 1.9626 14.7201 8.681l4.5292 7.5488 1.5098 6.039 0 46.8024q-1.7362 10.3418-8.6811 15.475l-12.078 6.039-23.4012 0q-9.7379-1.9627-14.7201-8.6811l-4.5293-7.5488-1.5097-6.039 0-46.8024q1.7362-10.3418 8.6811-15.4749zM71.0687 87.5353 66.5395 89.045l-4.5293 4.5293-2.2646 6.7939 0 40.7633 2.2646 6.039q3.0195 3.7744 9.0585 5.2842l17.3622 0 4.5293-1.5098 3.7744-3.7744 2.2646-6.7939 0-40.7633-2.2646-6.039q-3.0195-4.5293-8.3037-6.039z" />
    </svg>
    <g stroke-width="15" stroke="#a3a4a9" fill="none">
        <polyline points="39.846442 7.181818 7.664624 7.181818 7.664624 231.818182 39.846442 231.818182" />
        <polyline points="200.482805 7.181818 232.664624 7.181818 232.664624 231.818182 200.482805 231.818182" />
    </g>
    <path opacity="0.964706" stroke="currentColor" d="M132.4369 74.6267l55.9604 0 2.6468 1.5124q2.0418 1.9662 1.5125 7.1841-12.7802 14.0657-20.418 33.2738l-3.0249 9.8309-1.5125 7.5622 0 5.2936-0.7562 0.7562 0 20.418-3.403 4.1592-6.0498 0.7562-4.1592-5.6716 0-13.612 0.7562-0.7562 0.7562-15.1245 4.5374-17.3931q5.3692-14.1414 12.8558-25.3335l-31.3833 0-0.3781 0.3781 0 9.0747q-1.6637 4.3861-8.6965 3.403l-2.6468-1.8905-1.5125-3.0249 0-15.8807 1.5125-3.403z" />
</svg>