<svg viewBox="0 0 240 240" fill="#fafafa" width="32" height="32" xmlns="http://www.w3.org/2000/svg" xmlns:xlink="http://www.w3.org/1999/xlink">
    <svg viewBox="0 0 240 240" fill="#000" width="240" height="240" desc="Created with imagetracer.js version 1.2.6" version="1.1" xmlns="http://www.w3.org/2000/svg" xmlns:xlink="http://www.w3.org/1999/xlink">
        <path opacity="0.956863" stroke="currentColor" fill="#fafafa" d="M64.6718 74.7024l23.4012 0q9.7379 1.9626 14.7201 8.681l4.5292 7.5488 1.5098 6.039 0 46.8024q-1.7362 10.3418-8.6811 15.475l-12.078 6.039-23.4012 0q-9.7379-1.9627-14.7201-8.6811l-4.5293-7.5488-1.5097-6.039 0-46.8024q1.7362-10.3418 8.6811-15.4749zM68.0687 87.5353 63.5395 89.045l-4.5293 4.5293-2.2646 6.7939 0 40.7633 2.2646 6.039q3.0195 3.7744 9.0585 5.2842l17.3622 0 4.5293-1.5098 3.7744-3.7744 2.2646-6.7939 0-40.7633-2.2646-6.039q-3.0195-4.5293-8.3037-6.039z" />
    </svg>
    <g stroke-width="15" stroke="#a3a4a9" fill="none">
        <polyline points="39.846442 7.181818 7.664624 7.181818 7.664624 231.818182 39.846442 231.818182" />
        <polyline points="200.482805 7.181818 232.664624 7.181818 232.664624 231.818182 200.482805 231.818182" />
    </g>
    <path opacity="0.956863" stroke="currentColor" d="M149.0691 74.6512l21.9186 0 5.2907 1.5116 8.6919 5.2907 6.0465 10.2035 0 5.2907q-1.6628 4.3837-8.6919 3.4011l-2.6453-1.8895-3.4012-6.4244-9.0698-4.5349h-15.8721l-7.936 4.9128-3.0233 8.3139 0 12.471 9.4477-3.0233 20.407 0q12.3198 2.1163 17.7616 10.9593l4.5349 11.3372 0 11.3372q-2.343 11.6396-10.9593 17.0059l-10.5814 4.5348-22.6744 0q-10.9593-2.6453-16.25-10.9593l-3.0233-5.2907-1.5116-6.0465 0-46.8604q2.343-11.6396 10.9593-17.0059zM153.2261 123.0233l-3.7791 0.7558-5.2907 3.0232-3.0232 6.0465-0.7559 3.7791 0.7559 7.5581 2.2674 3.7791q3.0233 3.7791 9.0698 4.5349h16.6279l6.0465-3.0233 3.7791-6.0465 0.7558-3.779-0.7558-7.5582-3.0233-5.2907q-7.5581-5.2907-22.6744-3.779z" />
</svg>