<svg viewBox="0 0 240 240" fill="#fafafa" width="32" height="32" xmlns="http://www.w3.org/2000/svg" xmlns:xlink="http://www.w3.org/1999/xlink">
    <svg viewBox="0 0 240 240" fill="#000" width="240" height="240" desc="Created with imagetracer.js version 1.2.6" version="1.1" xmlns="http://www.w3.org/2000/svg" xmlns:xlink="http://www.w3.org/1999/xlink">
        <path opacity="0.956863" stroke="currentColor" fill="#fafafa" d="M70.6718 74.7024l23.4012 0q9.7379 1.9626 14.7201 8.681l4.5292 7.5488 1.5098 6.039 0 46.8024q-1.7362 10.3418-8.6811 15.475l-12.078 6.039-23.4012 0q-9.7379-1.9627-14.7201-8.6811l-4.5293-7.5488-1.5097-6.039 0-46.8024q1.7362-10.3418 8.6811-15.4749zM74.0687 87.5353 69.5395 89.045l-4.5293 4.5293-2.2646 6.7939 0 40.7633 2.2646 6.039q3.0195 3.7744 9.0585 5.2842l17.3622 0 4.5293-1.5098 3.7744-3.7744 2.2646-6.7939 0-40.7633-2.2646-6.039q-3.0195-4.5293-8.3037-6.039z" />
    </svg>
    <g stroke-width="15" stroke="#a3a4a9" fill="none">
        <polyline points="39.846442 7.181818 7.664624 7.181818 7.664624 231.818182 39.846442 231.818182" />
        <polyline points="200.482805 7.181818 232.664624 7.181818 232.664624 231.818182 200.482805 231.818182" />
    </g>
    <path transform="matrix(0.1, 0, 0, -0.1, 0, 240)" d="M1483.3024 1648.7066c-65.6587-23.1737-110.4611-61.7964-141.3593-121.2755-34.7605-67.976-12.3593-125.9101 47.8922-125.9101 31.6707 0 67.9761 26.2634 67.9761 49.4371 0 20.8563 46.3473 65.6587 75.7006 74.1557 15.4491 3.8622 54.8443 7.7245 86.5149 7.7245 98.8743 0 156.036-40.1676 156.036-111.2335 0-72.6108-50.2096-120.503-126.6827-120.503-47.8922 0-85.7425-13.9042-94.2395-34.7605-9.2694-24.7185-4.6347-56.3892 11.5868-76.473 13.9042-17.7665 21.6288-20.0839 59.4791-20.0839 57.1617-0.7724 106.5988-12.3593 134.4072-31.6706 72.6107-51.7545 69.5209-186.1617-6.1797-243.3234-27.0359-20.8563-33.988-22.4012-114.3233-24.7185-48.6647-1.545-99.6467 0.7724-118.1857 5.4071-40.1676 10.8144-75.7006 40.1677-95.0119 78.7905-17.7665 33.2155-35.533 45.5748-67.9761 45.5748-35.5329 0-63.3413-26.2635-63.3413-60.2515 0-58.7066 71.0659-147.5389 145.994-182.2994 31.6707-14.6766 48.6647-16.2215 170.7126-16.2215 129 0 136.7245 0.7724 177.6647 20.0838 51.7545 23.9461 108.1437 78.7904 132.8622 128.2275 15.4491 32.4431 17.7665 48.6647 17.7665 125.9102 0 79.5629-2.3174 93.4671-20.0838 131.3174-10.8144 23.1736-32.4431 54.8443-47.1198 69.5209l-26.2635 27.036 21.6288 30.1257c90.3772 125.1377 30.1257 321.3413-115.0958 375.4132-57.9342 21.6287-210.8803 21.6287-270.3593 0z" />
</svg>