<svg viewBox="0 0 240 240" fill="currentColor" width="32" height="32" xmlns="http://www.w3.org/2000/svg" xmlns:xlink="http://www.w3.org/1999/xlink">
    <svg viewBox="0 0 240 240" fill="a3a4a9" width="240" height="240" desc="Created with imagetracer.js version 1.2.6" version="1.1" xmlns="http://www.w3.org/2000/svg" xmlns:xlink="http://www.w3.org/1999/xlink">
        <path opacity="0.956863" stroke="currentColor" fill="#fafafa" d="M72.6718 74.7024l23.4012 0q9.7379 1.9626 14.7201 8.681l4.5292 7.5488 1.5098 6.039 0 46.8024q-1.7362 10.3418-8.6811 15.475l-12.078 6.039-23.4012 0q-9.7379-1.9627-14.7201-8.6811l-4.5293-7.5488-1.5097-6.039 0-46.8024q1.7362-10.3418 8.6811-15.4749zM76.0687 87.5353 71.5395 89.045l-4.5293 4.5293-2.2646 6.7939 0 40.7633 2.2646 6.039q3.0195 3.7744 9.0585 5.2842l17.3622 0 4.5293-1.5098 3.7744-3.7744 2.2646-6.7939 0-40.7633-2.2646-6.039q-3.0195-4.5293-8.3037-6.039z" />
    </svg>
    <g stroke-width="15" stroke="#a3a4a9" fill="none">
        <polyline points="39.846442 7.181818 7.664624 7.181818 7.664624 231.818182 39.846442 231.818182" />
        <polyline points="200.482805 7.181818 232.664624 7.181818 232.664624 231.818182 200.482805 231.818182" />
    </g>
    <path opacity="0.964706" fill="#fafafa" d="M156.1367 74.6267l22.6867 0q9.6797 2.0418 14.7464 8.6965 6.806 6.4279 6.0497 20.418-2.0418 11.5702-10.209 17.015l-35.5424 15.8807-4.1592 4.1592-1.5125 3.0249-0.7562 7.5622 1.1343 1.1344 46.8858 0 2.6468 1.8905q2.0418 1.7393 1.5124 6.0498l-1.5124 3.403-3.403 1.5124-55.9605 0-2.6467-1.5124-1.5125-3.403 0-16.6369q2.2687-10.5871 9.4528-16.2588l6.0498-3.7811 30.2489-12.8558 4.1592-4.1592 2.2687-7.5622-0.7563-3.7811-4.9154-5.6717-6.0498-2.2687-15.8807 0q-5.6716 1.1344-8.6965 4.9155l-4.1592 7.1841-6.806 0.7562q-4.9155-1.5124-3.403-9.4528 3.2517-7.3353 9.4527-11.7214z" />
</svg>