<svg viewBox="0 0 240 240" stroke="none" fill="none" xmlns="http://www.w3.org/2000/svg" xmlns:xlink="http://www.w3.org/1999/xlink">
   <g stroke-width="15" stroke="#a3a4a9" fill="none">
    <polyline points="39.846442 7.181818 7.664624 7.181818 7.664624 231.818182 39.846442 231.818182" />
    <polyline points="200.482805 7.181818 232.664624 7.181818 232.664624 231.818182 200.482805 231.818182" />
  </g> 
  <g>
      <path opacity="0.956863" fill="#fafafa" d="M69.6718 74.7024H93.073q9.7379 1.9626 14.7201 8.681l4.5292 7.5488 1.5098 6.039v46.8024q-1.7362 10.3418-8.6811 15.475l-12.078 6.039H69.6718q-9.7379-1.9627-14.7201-8.6811l-4.5293-7.5488-1.5097-6.039V96.2163q1.7362-10.3418 8.6811-15.4749zM73.0687 87.5353 68.5395 89.045l-4.5293 4.5293-2.2646 6.7939v40.7633l2.2646 6.039q3.0195 3.7744 9.0585 5.2842h17.3622l4.5293-1.5098 3.7744-3.7744 2.2646-6.7939V99.6133l-2.2646-6.039q-3.0195-4.5293-8.3037-6.039z" />
  </g>
  <path opacity="0.956863" fill="#fafafa" d="M144.6718 74.7024h23.4012q9.7379 1.9626 14.7201 8.681l4.5292 7.5488 1.5098 6.039v46.8024q-1.7362 10.3418-8.6811 15.475l-12.078 6.039h-23.4012q-9.7379-1.9627-14.7201-8.6811l-4.5293-7.5488-1.5097-6.039V96.2163q1.7362-10.3418 8.6811-15.4749zM148.0687 87.5353l-4.5292 1.5097-4.5293 4.5293-2.2646 6.7939v40.7633l2.2646 6.039q3.0195 3.7744 9.0585 5.2842h17.3622l4.5293-1.5098 3.7744-3.7744 2.2646-6.7939V99.6133l-2.2646-6.039q-3.0195-4.5293-8.3037-6.039z" />
</svg>